<svg width="233" height="54" viewBox="0 0 233 54" fill="none" xmlns="http://www.w3.org/2000/svg">
<path d="M2.944 33.984L5.632 19.264C4.992 18.688 4.544 18.112 4.224 17.408L2.112 14.976C1.408 13.44 1.216 11.648 1.216 10.176C1.216 7.93603 1.344 4.67203 2.304 2.30403L2.752 1.08803H23.872C28.672 1.08803 34.368 1.98403 37.504 5.56803L39.616 8.00003C41.152 9.79203 42.176 12.224 42.176 15.744C42.176 23.232 38.272 28.992 32.384 33.088C32.704 33.664 32.96 34.112 33.216 34.432C34.24 35.456 36.16 36.48 37.632 36.544L39.616 36.608L41.664 39.04L41.6 40.96C41.28 46.784 36.288 51.712 30.464 51.712C26.88 51.712 24.512 50.368 22.784 48.384L20.672 45.952C20.224 45.44 19.84 44.864 19.392 44.16C19.2 45.632 19.136 46.912 19.072 48.256L19.008 49.216L18.24 49.728C16.256 51.2 13.376 51.584 11.52 51.584C9.024 51.584 6.848 51.008 5.504 49.408L3.392 46.976C2.432 45.952 1.92 44.416 1.92 42.304C1.92 40.832 2.048 39.424 2.304 38.016C2.368 37.312 2.496 36.672 2.624 35.968C2.752 35.264 2.88 34.624 2.944 33.984ZM27.776 30.016C34.24 26.112 38.144 20.48 38.144 13.312C38.144 5.56803 32.384 3.00803 23.872 3.00803H4.096C3.392 4.73603 3.136 7.42403 3.136 10.176C3.136 13.312 4.096 16.192 7.04 16.192H8.128L4.864 34.304C4.16 37.888 3.84 40.32 3.84 42.304C3.84 45.824 5.504 47.232 9.408 47.232C11.2 47.232 12.608 46.976 13.568 46.528C14.144 46.336 14.592 46.08 15.04 45.76C15.232 42.688 15.744 38.464 16.32 34.56L16.96 34.368C17.152 34.368 17.344 34.304 17.536 34.24C19.968 43.136 22.528 47.36 28.352 47.36C32.512 47.36 37.248 44.032 37.568 38.464C36.032 38.4 34.496 37.76 32.96 36.672C31.104 35.584 29.376 33.344 27.776 30.016ZM26.944 18.88C26.944 23.168 21.888 25.728 17.536 26.944L19.2 16.32C20.16 16.064 20.928 15.808 22.72 15.808C25.28 15.808 26.944 17.024 26.944 18.88ZM22.976 20.288L22.656 22.592C23.744 21.76 24.448 20.992 24.768 20.16L22.976 20.288ZM73.438 3.32803L75.55 5.76003C76.702 7.10403 77.278 8.89603 77.278 11.136C77.278 13.696 76.382 17.408 75.294 19.712L74.782 20.8H69.15L70.814 22.784L71.262 24.192C71.518 25.152 71.838 26.432 71.838 27.712C71.838 29.696 71.198 31.296 69.982 32.384L70.878 33.408L72.094 35.328C73.31 37.184 74.398 39.552 74.398 42.176C74.398 45.248 73.182 47.424 71.39 49.024C68.318 51.584 63.198 52.544 59.806 52.544C54.942 52.544 50.206 51.84 47.39 48.576L45.278 46.144C43.742 44.352 42.782 41.792 42.782 38.208C42.782 35.072 43.358 31.104 44.126 27.008C44.382 25.664 44.638 24.32 44.958 22.976L45.726 19.2C45.534 19.072 45.342 18.88 45.214 18.688L43.102 16.32C41.886 14.848 41.374 12.928 41.374 10.816C41.374 7.80803 42.334 4.80003 43.294 2.30403L43.742 1.08803H67.806C70.302 1.08803 72.158 1.85603 73.438 3.32803ZM58.142 22.336L59.038 16.448H71.454C72.03 15.296 73.246 11.2 73.246 8.70403C73.246 5.37603 71.71 3.00803 67.806 3.00803H45.086C44.51 4.73603 43.294 7.87203 43.294 10.816C43.294 13.824 44.51 16.448 48.158 16.448H48.286C47.326 20.736 46.686 24.192 45.982 27.776C45.278 31.04 44.894 34.24 44.702 37.568C44.382 45.888 49.31 48.192 57.694 48.192C65.438 48.192 70.366 45.056 70.366 39.744C70.366 37.952 69.726 36.032 68.382 33.92C67.102 35.2 62.686 36.352 60.638 36.352C58.142 36.352 56.35 35.328 56.542 32.96C56.606 32.32 56.67 31.68 56.798 31.04C56.862 30.4 56.99 29.76 57.054 29.12C59.806 29.696 61.086 29.824 62.558 29.824C65.886 29.824 67.806 28.352 67.806 25.28C67.806 24.512 67.614 23.488 67.294 22.272L58.142 22.336ZM63.07 34.112C62.686 34.048 62.302 34.048 61.918 33.984L60.702 33.792L60.638 34.432C61.278 34.432 62.11 34.304 63.07 34.112ZM106.381 4.80003L108.429 7.16803C109.901 8.83203 110.797 11.2 111.118 14.336C111.821 22.592 112.525 30.912 114.509 38.912C114.701 39.68 115.021 41.088 115.469 42.432L116.109 44.096L117.646 45.888L116.941 47.232C116.365 48.32 115.661 49.152 114.893 49.856C112.91 51.584 110.542 52.096 108.045 52.096C104.653 52.096 102.541 51.008 101.069 49.408L99.0215 46.976C97.9975 45.76 97.3575 44.288 96.9095 42.752L90.2535 44.032C89.5495 46.016 89.1655 47.552 89.1655 49.408V50.688L87.9495 51.2C86.2215 51.904 84.1735 52.096 82.5735 52.096C80.0775 52.096 78.0295 51.52 76.6855 50.048L74.5735 47.616C73.6135 46.528 73.1655 44.992 73.1655 43.008C73.1655 38.592 75.5975 32.704 77.3255 29.12C79.3735 24.448 81.3575 19.84 83.3415 15.04C84.8775 11.456 86.2855 7.87203 87.5015 4.09603L87.8215 3.13603L88.8455 2.81603C91.5975 2.04803 94.5415 1.47203 97.5495 1.47203C101.517 1.47203 104.461 2.56003 106.381 4.80003ZM110.542 36.928C108.75 29.184 107.469 17.216 107.085 12.096C106.765 6.33603 103.693 4.09603 99.5975 3.52003C96.4615 3.07203 92.3655 3.84003 89.3575 4.67203C88.2695 8.19203 86.2215 13.248 84.1735 18.112C82.4455 22.208 80.0775 27.52 79.0535 29.888C77.5815 32.96 75.0855 39.296 75.0855 43.008C75.0855 46.656 76.8775 47.68 80.4615 47.744C81.9335 47.744 83.8535 47.488 85.1335 46.976C85.1335 44.8 85.5815 43.264 86.4135 40.96L86.6055 40.448C86.6055 40.256 86.6695 40.128 86.7335 39.936L97.9975 37.76L98.1895 39.232C98.9575 45.12 100.813 47.744 105.933 47.744C108.685 47.744 111.438 47.04 113.166 43.904C112.205 43.072 111.373 40.32 110.542 36.928ZM97.2295 30.656L89.0375 32.576C90.0615 29.632 91.0855 26.752 92.1735 23.872C93.2615 20.992 94.1575 18.496 94.9895 16.32C95.8215 19.584 96.7175 23.808 97.0375 28.224L97.2295 30.656ZM117.484 18.752L115.372 16.32C114.924 15.808 114.604 15.296 114.412 14.784C113.644 13.056 113.516 11.264 113.516 9.79203C113.516 8.19203 113.836 4.09603 114.476 2.36803L114.924 1.08803H135.468C142.316 1.08803 147.308 2.75203 150.444 6.33603L152.556 8.76803C155.116 11.776 156.46 16 156.46 21.888C156.46 24.512 156.14 27.072 155.564 29.568C154.284 34.624 151.98 39.104 148.716 42.88C147.052 44.8 145.196 46.464 143.148 47.872C139.052 50.624 134.124 52.224 128.748 52.224C124.716 52.224 121.452 51.264 119.212 48.768L117.164 46.4C115.18 44.16 114.86 41.408 114.86 38.528C115.18 35.392 115.628 32.192 116.268 28.928C116.908 25.728 117.484 22.528 118.06 19.328L117.484 18.752ZM126.636 47.872C134.124 47.872 140.588 44.48 145.196 39.232C149.74 33.984 152.428 26.88 152.428 19.456C152.428 7.87203 147.052 3.00803 135.468 3.00803H116.268C116.012 3.96803 115.436 7.23203 115.436 9.79203C115.436 13.12 116.396 16.192 119.404 16.192H120.492C120.108 18.752 119.148 23.872 118.508 27.392C117.74 31.744 117.036 36.096 116.78 38.72C116.588 45.12 119.98 47.872 126.636 47.872ZM130.412 36.864C129.132 36.864 128.812 35.968 128.812 34.688C129.004 31.36 130.54 21.952 131.5 16C132.716 15.808 133.868 15.744 134.892 15.744C138.988 15.744 140.588 18.24 140.588 21.376C140.588 27.264 136.172 36.864 130.412 36.864ZM138.604 20.288C138.156 20.16 137.58 20.096 137.004 20.096L135.276 20.16C134.7 23.68 134.124 27.072 133.612 30.592C133.42 31.616 133.292 32.768 133.1 33.984C133.164 33.92 133.292 33.856 133.484 33.664C136.428 31.04 138.668 25.408 138.668 21.376V20.8C138.668 20.608 138.668 20.48 138.604 20.288ZM159.67 20.16C158.326 19.584 157.43 18.56 156.854 17.344L154.742 14.912C153.974 13.376 153.846 11.584 153.846 10.112C153.846 7.61603 154.23 5.05603 154.806 2.56003L155.126 1.08803H166.966C169.014 1.08803 171.894 1.40803 173.622 3.39203L175.734 5.82403C176.566 6.78403 177.078 8.00003 177.078 9.79203C177.078 11.136 177.014 12.544 176.886 13.888C176.758 15.296 176.694 16.704 176.694 18.048V18.752C178.166 15.808 178.934 10.304 178.934 7.10403C178.934 6.01603 178.87 5.05603 178.678 4.22403L178.358 2.75203L179.702 2.11203C181.75 1.08803 184.374 0.832027 186.358 0.832027C189.366 0.832027 191.478 1.60003 192.822 3.20003L194.934 5.56803C196.022 6.84803 196.662 8.64003 196.662 11.136C196.662 20.992 192.886 32.064 183.286 35.584C182.838 38.336 182.326 41.344 182.326 43.904C182.326 45.184 182.39 46.464 182.582 47.744L182.838 48.96L181.814 49.664C179.83 51.136 176.886 51.52 174.902 51.52C172.406 51.52 169.974 50.752 168.502 49.024L166.39 46.656C165.302 45.44 164.79 43.84 164.79 41.856C164.79 39.104 165.366 35.456 165.878 32.384L163.574 29.76C161.27 27.008 160.118 23.552 159.67 20.16ZM192.63 8.70403C192.63 4.35203 190.71 2.75203 186.358 2.75203C184.118 2.75203 182.006 3.13603 180.534 3.84003C180.726 4.80003 180.854 5.88803 180.854 7.10403C180.854 12.928 179.062 21.44 175.286 23.232C173.302 21.504 172.47 18.624 172.662 14.848C172.662 13.504 172.726 12.16 172.854 10.88L173.046 7.36003C173.046 4.60803 171.318 3.00803 166.966 3.00803H156.662C156.406 4.16003 155.766 7.48803 155.766 10.112C155.766 13.248 156.662 16.192 159.67 16.192H161.526L161.462 17.408C161.398 23.744 163.894 28.608 168.054 30.976C167.35 35.264 166.902 39.04 166.71 41.856C166.71 45.632 169.142 47.168 172.79 47.168C175.03 47.168 177.398 46.656 178.614 45.696C178.358 44.352 178.294 42.944 178.294 41.472C178.358 39.424 178.742 35.84 179.446 31.744C183.542 30.464 186.806 27.648 189.11 23.68C191.414 19.712 192.63 14.592 192.63 8.70403ZM199.175 42.56C199.175 39.296 200.391 37.12 203.207 35.648L200.903 33.024C200.007 32 199.559 30.72 199.559 29.12C199.559 25.152 202.631 21.44 206.023 19.392C206.279 19.136 206.599 18.944 206.919 18.752H204.999C203.015 18.752 201.799 18.048 200.967 17.088L198.855 14.656C197.639 13.376 197.383 11.456 197.383 9.85603C197.383 6.97603 198.215 3.84003 199.175 1.47203L199.623 0.192028H200.967C203.463 0.128029 205.895 0.128029 208.391 0.0640259C210.887 2.67029e-05 213.383 2.67029e-05 215.879 2.67029e-05C220.231 2.67029e-05 223.879 1.21603 226.247 3.96803L228.359 6.40003C230.087 8.25603 230.983 10.88 230.983 14.272C230.983 21.248 225.991 24.96 220.359 28.608C219.015 29.44 216.711 31.296 216.711 32.96L217.351 36.096L215.751 36.672C215.431 36.736 215.111 36.864 214.791 36.928C214.471 37.056 214.151 37.184 213.831 37.248L216.007 39.808C217.159 41.088 217.735 42.816 217.735 44.992C217.735 50.048 214.407 52.608 209.543 52.608C206.791 52.608 204.487 51.84 202.951 50.048L200.839 47.68C199.815 46.464 199.175 44.8 199.175 42.56ZM207.239 33.536C209.031 33.536 210.951 33.152 212.999 32.448C212.807 31.744 212.679 31.232 212.679 30.528C212.679 27.264 216.455 24.96 219.847 22.784C221.063 22.016 222.215 21.12 223.303 20.096C225.351 18.048 226.951 15.488 226.951 11.84C226.951 4.86403 222.343 1.92003 215.559 1.92003L200.967 2.11203C198.919 7.93603 198.023 14.4 202.887 14.4H209.543C211.079 14.4 212.743 14.784 212.743 15.872C212.743 17.344 209.479 19.328 207.239 20.864C204.423 22.72 201.607 25.472 201.479 29.12C201.671 32.384 203.975 33.536 207.239 33.536ZM207.431 48.256C211.591 48.256 213.703 46.336 213.703 42.56C213.703 38.72 211.591 36.8 207.431 36.8C203.079 36.8 201.095 38.784 201.095 42.56C201.095 46.336 203.207 48.256 207.431 48.256Z" fill="#F6E049"/>
</svg>
